<svg width="68" height="33" viewBox="0 0 68 33" fill="none" xmlns="http://www.w3.org/2000/svg">
<path d="M17.543 25.2438C17.2424 24.5496 17.1944 23.6211 16.9419 22.8818C16.1342 22.573 15.2897 22.3709 14.4296 22.2808C13.6904 24.6428 12.882 26.9387 12.2148 29.3729C12.9691 29.5532 13.6213 29.8357 14.5769 29.8147C15.0517 28.6126 15.214 27.11 16.0554 26.2686C16.2117 27.3444 16.7586 28.0296 16.9419 29.0784C18.2101 28.4233 18.2882 26.5811 19.4542 25.8268C19.6315 27.1761 19.7758 28.5585 20.0553 29.8147C21.0259 29.8988 21.4857 29.4721 22.4173 29.5141C22.3181 27.3775 21.4527 24.781 21.092 22.422C18.8201 22.2717 18.6308 24.198 17.543 25.2438Z" fill="white"/>
<path d="M29.3627 22.8666C29.0352 23.8673 29.2515 25.412 28.7617 26.2624C27.9713 26.1663 26.7933 26.4578 26.2494 26.1152V22.8666C25.3635 22.8185 24.4757 22.8185 23.5898 22.8666C23.6289 24.82 23.7191 27.9393 24.0316 30.106C24.7318 29.9678 25.6063 30.0038 26.2494 29.8055C26.2975 29.2646 26.1232 28.4983 26.3966 28.1827C27.0698 28.2458 28.0224 28.0325 28.4642 28.33C28.5153 28.931 28.2027 29.1504 28.3169 29.8055H30.8292C31.3292 27.567 31.6746 25.2968 31.863 23.0109C30.8983 23.104 30.3604 22.7554 29.3627 22.8666Z" fill="white"/>
<path d="M9.86 22.2752C9.68871 23.0866 9.69172 24.0783 9.25897 24.6372C7.66024 25.1511 6.92097 23.6636 6.89393 22.1279C5.86917 22.2842 4.67313 22.2722 4.23438 23.0295C4.61603 24.8686 5.51457 26.4042 7.48293 26.4253C8.105 26.4253 8.68499 26.0166 9.25897 26.1248C8.93141 27.6273 6.90895 27.423 6.00741 28.3426C6.33196 28.7062 6.33497 29.3914 6.60844 29.8181C8.29432 29.2832 9.86 29.4034 10.8938 28.3426C12.1529 27.0473 11.8644 24.6252 12.3783 22.4224C11.7442 22.164 10.7105 22.3112 9.86 22.2752Z" fill="white"/>
<path d="M22.5705 7.64638C21.2272 7.69146 19.5052 8.19933 18.7269 8.97766C17.017 10.6876 17.5849 13.9241 18.8741 15.3305C19.3822 15.8379 19.9858 16.2393 20.6502 16.5116C23.3247 17.338 25.23 15.7873 27.1503 15.1833C27.3126 15.8384 26.7927 16.2591 27.1503 16.6588C28.2442 16.5717 29.4402 16.5867 30.4019 16.3583C29.8279 10.8198 30.8346 4.14539 27.5921 1.88552C24.9956 0.0824327 21.6088 1.93961 19.0244 3.5113C19.382 4.82455 20.545 5.33843 21.2392 6.31811C22.6696 5.41656 25.9693 4.51502 26.411 6.91913C25.6387 8.35259 23.8957 7.6013 22.5705 7.64638ZM21.0949 12.8182C21.2452 12.121 22.276 11.3337 23.0152 10.8979C23.7545 10.4622 24.8604 9.80107 25.5275 10.8979C25.1909 12.6229 23.0994 13.239 21.0949 12.8182Z" fill="white"/>
<path d="M7.64567 19.1699C11.8679 18.632 16.3005 17.5291 17.9864 15.0258C16.8534 13.7126 16.8534 10.5993 17.8391 9.11471C15.7355 7.59411 11.2549 7.46489 7.49542 7.63618C6.74714 7.67224 5.34674 8.26726 5.13337 7.33567C4.96809 6.77971 5.7344 6.79775 6.01989 6.73464C7.50443 6.43412 8.94991 6.43412 10.4525 6.29288C13.2292 6.0134 16.2163 6.31993 16.9526 4.81435C16.8444 3.37789 16.6341 1.65595 16.5108 0.67627C11.7026 1.22321 7.1949 2.09169 2.32657 2.59656C2.02606 3.19758 1.15757 3.66338 0.995292 4.51985C0.833015 5.37631 1.2357 6.70158 1.29581 7.91566C1.47011 11.618 1.59632 15.729 1.89684 18.8514C3.36335 19.795 5.4429 19.4494 7.64567 19.1699ZM5.72238 11.1913C8.62235 11.1492 11.4021 11.2273 13.2593 12.225C12.6312 13.2167 11.1557 13.403 9.86047 13.7036C8.56525 14.0041 7.12879 14.1994 5.87264 14.4428C5.54808 13.6344 5.80653 12.2431 5.72238 11.1913Z" fill="white"/>
<path d="M56.536 20.8975C54.9042 20.1162 53.1072 20.4317 51.9652 21.7059C50.7091 23.1033 50.64 25.2039 51.7879 27.0611C51.9219 27.2692 52.0737 27.4653 52.2417 27.6471C52.6173 28.0708 52.9389 28.4404 52.8698 29.2278C52.3288 29.5283 52.2297 29.2759 52.1305 29.8288C51.9231 30.9527 54.3212 30.4599 54.4955 31.4546C53.8164 31.3945 53.3686 31.103 52.7225 31.0128C52.8668 32.879 56.2716 32.879 56.4158 31.0128C56.0793 30.532 55.3761 31.3344 55.0876 30.8656C55.8268 30.6793 58.2249 30.1534 56.5631 29.3871H56.5421C56.5452 29.3651 56.5452 29.3429 56.5421 29.3209V29.1496C56.5243 28.8654 56.5748 28.581 56.6893 28.3202C58.1378 27.4878 58.9402 26.1385 58.8921 24.6119C58.8675 23.8386 58.636 23.0861 58.2216 22.4328C57.8072 21.7795 57.2251 21.2493 56.536 20.8975ZM55.4963 27.7643C55.4686 28.2628 55.4064 28.7589 55.3099 29.2488C55.0695 29.4231 54.5827 29.348 54.189 29.366L54.1169 29.3901C54.0285 28.8712 53.9733 28.3473 53.9516 27.8214C53.8735 26.5893 53.8374 25.3722 53.0501 24.4286C53.0561 24.3928 53.0561 24.3562 53.0501 24.3204H53.4077C53.4181 24.3316 53.4315 24.3395 53.4463 24.3431C53.4612 24.3467 53.4767 24.346 53.4911 24.3408C53.5055 24.3357 53.5181 24.3265 53.5273 24.3143C53.5365 24.3021 53.5419 24.2875 53.5429 24.2723C53.5429 23.8636 53.7112 24.2723 53.9005 24.3534C54.0899 24.4346 54.3303 24.0109 54.4054 23.8937C54.7059 23.4459 54.5526 24.3294 54.784 24.4706C55.0154 24.6119 55.2438 24.2693 55.4181 24.077C55.6345 24.5247 55.8959 24.4917 56.2626 24.1551C56.2542 24.277 56.2905 24.3977 56.3647 24.4947C56.3882 24.5166 56.4164 24.5329 56.4471 24.5423C56.4779 24.5517 56.5103 24.5539 56.5421 24.5488C55.6736 25.4263 55.5804 26.6133 55.4963 27.7643Z" fill="white"/>
<path d="M64.2367 26.5601C64.8858 25.8479 65.6131 25.6255 65.7122 24.6368C66.0128 21.7158 61.1234 21.3312 59.3594 23.1613C59.3966 25.683 59.5973 28.1996 59.9604 30.6952C62.4156 31.3173 66.163 30.7944 65.8715 28.3332C65.7513 27.3896 65.009 27.1191 64.2367 26.5601ZM62.4637 29.6614C62.5749 28.8591 62.2293 28.5165 62.3164 27.7412C62.5989 27.5639 63.4884 27.7712 63.6447 28.1859C63.6447 29.0694 63.0527 29.3639 62.4637 29.6614ZM62.1632 25.9681C61.9949 24.6068 62.073 22.9089 63.6387 23.7503C63.9332 24.7631 63.4404 26.0463 62.1692 25.9681H62.1632Z" fill="white"/>
<path d="M65.5666 1.73468C62.4472 -1.67616 55.5354 0.466506 53.3026 3.65797C54.0435 4.76991 54.9975 5.72391 56.1094 6.46477C57.5849 5.62634 58.9643 4.68873 61.4285 4.83899C61.9183 5.23567 62.4202 5.62033 62.4623 6.46477C61.2873 7.71792 59.4 6.98166 57.8824 7.0658C54.2342 7.24311 50.7452 9.71333 51.8241 14.4554C52.1066 15.7026 53.8015 17.3043 55.2229 17.707C57.6901 18.4042 60.1573 17.4065 62.0175 16.3757C62.0866 17.097 61.8643 18.1067 62.1678 18.5935C63.6914 18.293 65.792 18.5725 67.1894 18.1488C66.6935 12.1024 68.716 5.18759 65.5666 1.73468ZM55.9501 13.4097C56.4911 11.3061 59.3489 8.87189 61.5637 10.7501C61.125 12.9739 58.6548 13.9295 55.9501 13.4097Z" fill="white"/>
<path d="M37.9237 23.0139C38.3024 24.9372 37.0793 27.5216 36.0034 27.2992C34.3626 26.9747 35.751 24.1198 36.1507 23.0139C35.2702 22.8095 34.0471 22.9418 33.1966 22.7134C32.827 24.856 31.5979 29.7634 33.9359 30.3975C35.6819 30.8693 36.6736 29.1474 37.9237 28.4772V29.9558C38.8914 30.0339 39.6066 29.8626 40.436 29.8055C40.3339 27.4465 40.3789 24.9372 40.1355 22.7134C39.4039 22.8516 38.6657 22.9519 37.9237 23.0139Z" fill="white"/>
<path d="M38.8253 0.998208V7.51336H35.5708C35.3995 5.47587 35.4716 2.72016 35.2703 1.16049C35.2703 1.16049 31.6641 1.20857 31.4297 1.461C31.6881 6.62183 32.0327 11.6945 32.4635 16.679C33.7455 16.7314 35.0297 16.6821 36.304 16.5318C36.4272 14.8639 35.703 12.0241 35.8623 10.3262C36.4633 10.3472 38.4347 10.1909 39.2611 10.4734C39.2851 12.3997 39.222 14.9331 39.2611 16.3845C40.5263 16.2703 41.9657 16.3395 42.9544 15.9428C42.8462 10.8791 42.708 5.8425 42.3534 1.01924C42.131 0.754791 38.8253 0.998208 38.8253 0.998208Z" fill="white"/>
<path d="M45.1767 20.0562C45.4923 19.4281 44.9664 18.8541 45.4772 18.4304C47.5327 18.4304 49.3839 18.202 51.3853 18.1299C51.5777 18.5776 51.4484 19.347 51.8301 19.6084C52.4311 19.4101 53.3958 19.6084 54.1951 19.3079V17.6851C51.6708 16.5281 50.2464 12.4321 52.1216 9.71247C51.8211 7.58183 52.0495 3.32955 51.9743 0.997559C49.2697 1.05766 46.9497 1.4874 44.1429 1.43931C44.1429 5.929 44.5516 11.2691 44.5877 16.2156C43.7162 16.429 43.1663 16.9639 42.2227 17.1021C42.3759 18.2291 42.7696 19.1156 42.9619 20.2064C43.6801 20.1343 44.6929 20.3597 45.1767 20.0562ZM48.1428 8.0897C48.8851 8.31809 49.9729 11.3262 49.7656 12.2248C49.4981 13.4058 48.1308 13.6763 47.109 14.1481C46.3397 11.9693 47.0669 9.35486 48.1428 8.0897Z" fill="white"/>
<path d="M49.9014 24.3424C49.3815 23.5311 48.8856 22.6986 47.9781 22.2749C47.0254 23.0532 46.2351 24.7511 45.1713 24.9345C45.4267 24.1742 45.1322 23.7054 45.3215 23.0142C44.4591 22.6776 43.3321 22.8729 42.5117 22.8669C42.7762 25.0156 42.4877 27.7172 42.8122 29.8088C43.6717 29.7337 44.8497 29.9771 45.4718 29.6615C45.4087 28.9854 45.2464 28.4084 45.3245 27.594C45.7062 27.5339 45.7693 27.1522 46.208 27.1492C46.6768 28.5046 47.5423 29.4602 47.9811 30.8456C48.8225 30.5451 49.6429 30.2445 50.0516 29.5143C49.3394 28.153 48.1373 27.2845 47.5363 25.821C48.3207 25.3251 49.117 24.8383 49.9014 24.3424Z" fill="white"/>
</svg>
